<svg height="32" viewBox="0 0 8.5 8.5" width="32" xmlns="http://www.w3.org/2000/svg"><g fill-rule="evenodd" transform="translate(-35.2 -26.6)"><path d="m36.3 34.1h.4l.4-.3.4.1h.4l.4.2h.4l.4-.3.4.6.4-.4.4-.4.4.4.4-.2.4.2.4.1.4-.4.4.3v-.3-5.9-.3l-.4-.1-.4.3-.4.2-.4-.4h-.4l-.4.1h-.4-.4l-.4.2-.4-.5-.4-.1-.4.4-.4-.2-.4-.3-.4.4-.4-.2v.5z" fill="#ccc" stroke="#404040" stroke-linecap="round" stroke-linejoin="round" stroke-width=".2"/><g fill="#808080"><path d="m37.4 28.7h1v1.1h-1z"/><path d="m39.5 28.7h2.1v2.1h-2.1z"/><path d="m37.4 30.9h1.1v1.1h-1.1z"/><path d="m39.5 31.9h2.1v1.1h-2.1z"/></g></g></svg>