<svg height="32" viewBox="0 0 8.5 8.5" width="32" xmlns="http://www.w3.org/2000/svg" xmlns:xlink="http://www.w3.org/1999/xlink"><clipPath id="a"><circle cx="20.5" cy="30.9" r="3.4"/></clipPath><clipPath id="b"><ellipse cx="20.5" cy="30.9" rx="3.4" ry="3.4"/></clipPath><g transform="translate(-16.3 -26.6)"><ellipse cx="20.5" cy="30.9" fill="#404040" fill-rule="evenodd" rx="4.2" ry="4.2"/><ellipse cx="20.5" cy="30.9" fill="#fff" fill-rule="evenodd" rx="4" ry="4"/><g clip-path="url(#b)"><g clip-path="none" fill="#ccc" fill-rule="evenodd" stroke-width="1.2" transform="matrix(-.86874997 0 0 .86874989 3.5 4.1)"><path d="m-19.6 28.4h2.4v2.4h-2.4z"/><path d="m-22.1 26h2.4v2.4h-2.4z"/><path d="m-24.5 28.4h2.4v2.4h-2.4z"/><path d="m-22.1 30.9h2.4v2.4h-2.4z"/><path d="m-24.5 33.3h2.4v2.4h-2.4z"/></g></g><g clip-path="url(#a)"><path d="m18.4 26.6v1.1h-1.1v1.1h-1.1v4.2h1.1v1.1h1.1v.8h1.3v.3h1.1v-2.1h1.1v-1.1h-1.1v1.1h-1.3v-1.1h-1.1v-2.1h1.1v-1.1h1.1v-2.1z" fill="#404040" fill-rule="evenodd"/></g></g></svg>