<svg height="32" viewBox="0 0 8.5 8.5" width="32" xmlns="http://www.w3.org/2000/svg"><g transform="translate(-44.7 -26.6)"><g fill-rule="evenodd" stroke-linecap="round" stroke-linejoin="round" stroke-width=".3"><circle cx="48.9" cy="29" fill="#404040" r="2.1"/><circle cx="46.8" cy="32.7" fill="#fff" r="2.1"/><circle cx="51.1" cy="32.7" fill="#404040" r="2.1"/><circle cx="48.9" cy="29" fill="#fff" r="1.9"/><circle cx="46.8" cy="32.7" fill="#404040" r="1.9"/><circle cx="51.1" cy="32.7" fill="#999" r="1.9"/></g><path d="m48.1 27.7v2.6h.5.5v-.5h-.5v-.5h.5v.5h.6v-1.6h-.5v.5h-.5v-.5h.5v-.5h-.5z" fill="#404040" opacity=".9"/><path d="m46.6 31.4v.5h.5.5v-.5h-.5zm0 .5h-.5v1.6h.5zm0 1.6v.5h.5.5v-.5h-.5z" fill="#fdfdfd" opacity=".9"/><path d="m50.3 31.4v1.1h.5v-.6h.5.6v-.5h-.5-.5zm.5 1.1v.5h.5v-.5zm.5.5v.5h-.5-.5v.5h.5.5.5v-1.1z" fill="#fdfdfd" opacity=".9"/></g></svg>