<svg height="32" viewBox="0 0 8.5 8.5" width="32" xmlns="http://www.w3.org/2000/svg"><g transform="translate(-72.2 -26.6)"><g stroke-width=".6" transform="matrix(1.5663515 0 0 1.5714254 30.1 -19.2)"><path d="m28.4 32.4-1.5 1.5h4l1.4-1.5zm.5.5h2.1l-.4.7-2.1-.2z" fill="#404040"/><path d="m28.5 32.5-1.1 1.2h3.4l1.1-1.2zm.4.3h2.1l-.5.5h-2z" fill="#ccc"/><path d="m28.7 32.7-.8.8h2.7l.8-.8z" fill="#404040"/></g><g stroke-width=".3" transform="translate(-5.7 -3.2)"><path d="m81.3 32.7h1.6v2.1h1.1l-1.9 1.6-1.9-1.6h1.1z" fill="#414141"/><path d="m81.5 32.9h1.1v2.2h.5l-1.1 1.3-1.1-1.3h.5z" fill="#fff"/></g><path d="m72.2 27.6h5.9v6.4h-5.9z" fill="none" stroke-width=".3"/><g stroke-width=".6" transform="matrix(1.5616426 0 0 1.5714254 30.2 -22.4)"><path d="m28.4 32.4-1.5 1.5h4l1.4-1.5zm.5.5h2.1l-.4.7-2.1-.2z" fill="#404040"/><path d="m28.5 32.5-1.1 1.2h3.4l1.1-1.2zm.4.3h2.1l-.5.5h-2z" fill="#ccc"/><path d="m28.7 32.7-.8.8h2.7l.8-.8zm.2.2h2.1l-.5.5h-2z" fill="#404040"/></g><g fill="#f00" stroke-width=".3" transform="matrix(1 0 0 1.1103728 -5.7 -4.4)"><path d="m81.3 28.2h1.6v2.4h-1.6z" fill="#404040"/><path d="m81.5 28.5h1.1v2.3h-1.1z" fill="#fff"/></g></g></svg>