<svg height="32" viewBox="0 0 8.5 8.5" width="32" xmlns="http://www.w3.org/2000/svg"><g transform="translate(-25.8 -26.6)"><path d="m26.8 28h4.2v4.2h-4.2z" fill="none" stroke-width=".3"/><g transform="translate(-.5 .3)"><path d="m26.6 34 1.9-1.9h4.2l-1.9 1.9z" fill="#404040"/><path d="m28.5 32.5-1.3 1.3h3.5l1.3-1.3z" fill="#ccc"/></g><path d="m60.9 46.2v1.1h3.2v-1.1z" fill="#404040" fill-rule="evenodd" stroke-width=".3" transform="matrix(1 0 -.71233289 .70184176 -.1 .3)"/><g transform="translate(-.5 -1.1)"><path d="m26.6 34 1.9-1.9h4.2l-1.9 1.9z" fill="#404040"/><path d="m28.5 32.5-1.3 1.3h3.5l1.3-1.3z" fill="#ccc"/></g><path d="m29.5 31.4-.8.8h2.4l.8-.8z" fill="#404040" fill-rule="evenodd" stroke-width=".3"/><g fill="#ccc" transform="translate(1.3 -2.4)"><path d="m26.6 34 1.9-1.9h4.2l-1.9 1.9z" fill="#404040"/><path d="m28.5 32.5-1.3 1.3h3.5l1.3-1.3z" fill="#fff"/></g><path d="m29.7 30.1-1.3 1.3h1.6l1.1-1.3z" fill="#ccc" fill-rule="evenodd" stroke-width=".3"/><g transform="translate(-.5 -3.7)"><path d="m26.6 34 1.9-1.9h4.2l-1.9 1.9z" fill="#404040"/><path d="m28.5 32.5-1.3 1.3h3.5l1.3-1.3z" fill="#ccc"/></g><path d="m60.9 46.2v1.1h3.2v-1.1z" fill="#404040" fill-rule="evenodd" stroke-width=".3" transform="matrix(1 0 -.71233289 .70184176 -.1 -3.7)"/><g transform="translate(-.5 -5)"><path d="m26.6 34 1.9-1.9h4.2l-1.9 1.9z" fill="#404040"/><path d="m28.5 32.5-1.3 1.3h3.5l1.3-1.3z" fill="#fff"/></g></g></svg>