<svg height="32" viewBox="0 0 8.5 8.5" width="32" xmlns="http://www.w3.org/2000/svg"><g transform="translate(-35.2 -26.6)"><path d="m36.6 28.1h4.2v4.2h-4.2z" fill="none" stroke-width=".3"/><g transform="translate(10 -.8)"><path d="m26.6 34 1.9-1.9h4.2l-1.9 1.9z" fill="#404040"/><path d="m28.5 32.5-1.3 1.3h3.5l1.3-1.3z" fill="#ccc"/></g><path d="m60.9 46.2v1.1h3.2v-1.1z" fill="#404040" fill-rule="evenodd" stroke-width=".3" transform="matrix(1 0 -.71233289 .70184176 10.5 -.8)"/><g transform="translate(10 -1.9)"><path d="m26.6 34 1.9-1.9h4.2l-1.9 1.9z" fill="#404040"/><path d="m28.5 32.5-1.3 1.3h3.5l1.3-1.3z" fill="#ccc"/></g><path d="m60.9 46.2v1.1h3.2v-1.1z" fill="#404040" fill-rule="evenodd" stroke-width=".3" transform="matrix(1 0 -.71233289 .70184176 10.5 -1.9)"/><g transform="translate(10 -2.9)"><path d="m26.6 34 1.9-1.9h4.2l-1.9 1.9z" fill="#404040"/><path d="m28.5 32.5-1.3 1.3h3.5l1.3-1.3z" fill="#ccc"/></g><path d="m60.9 46.2v1.1h3.2v-1.1z" fill="#404040" fill-rule="evenodd" stroke-width=".3" transform="matrix(1 0 -.71233289 .70184176 10.5 -2.9)"/><g transform="translate(10 -4)"><path d="m26.6 34 1.9-1.9h4.2l-1.9 1.9z" fill="#404040"/><path d="m28.5 32.5-1.3 1.3h3.5l1.3-1.3z" fill="#fff"/></g><g stroke-width=".3"><path d="m38.7 26.9h1.6v6.6h1.1l-1.9 1.5-1.9-1.5h1.1z" fill="#ccc"/><path d="m38.9 27.2h1.1v6.6h.5l-1.1.8-1.1-.8h.5z" fill="#404040"/></g></g></svg>