<svg height="32" viewBox="0 0 8.5 8.5" width="32" xmlns="http://www.w3.org/2000/svg"><g transform="translate(-82.2 -26.6)"><path d="m87.9 31.3c-.1-.1-.3-.2-.4-.1l-.2.2-2.6-3.3c-1.1-1.3-1.6-1.1-1.7-1-.2.2-.4.6.7 1.9l2.8 3.1-.2.2c-.1.1-.1.3 0 .4s.3.2.4.1l1.2-1c.1-.1.1-.2 0-.4z" fill="#999" stroke="#404040" stroke-width=".3"/><path d="m89.5 34.2c-.8-.4-.2-1.1-.7-1.7-.4-.4-.7-.4-1.3.2-1 .9 0 2.2 2 1.5z" fill="#999" stroke="#404040" stroke-width=".3"/><path d="m88.5 33.2c-.2-.2-.6-.1-.8 0-.6.5.4 1.1 1.1.8-.4-.3 0-.4-.3-.8z" fill="#fff"/><path d="m86.4 32.6 1.3-1.1" fill="none" stroke="#fff" stroke-width=".3"/></g></svg>