<svg height="32" viewBox="0 0 8.5 8.5" width="32" xmlns="http://www.w3.org/2000/svg"><g stroke-width=".3" transform="translate(-63.2 -26.6)"><path d="m67.2 28.7c-.7 0-1.3.1-1.8.4s-.9.7-.9 1.2c0 .2.1.4.2.6v2.9.2c.1.4.4.8.9 1 .4.2 1 .3 1.6.3.6 0 1.1-.1 1.6-.3.4-.2.8-.5.9-1 0-.1 0-.1 0-.2v-.1h.1a.3.3 0 0 0 0 0c.4 0 .7-.2.9-.5s.3-.7.3-1.1-.1-.8-.3-1.1-.5-.5-.9-.5c0-.1.1-.1.1-.2 0-.5-.4-.9-.9-1.2s-1.1-.4-1.8-.4zm2.4 3.1c.1.1 0 0 0 .1v.1.1.1.1.1.1.1z" fill="#404040" fill-rule="evenodd" stroke-linecap="round" stroke-linejoin="round" transform="matrix(.95076627 0 0 .95076627 3.5 1.4)"/><g fill="#999" transform="matrix(.95076627 0 0 .95076627 3.5 1.4)"><path d="m69.7 30.9a.9 1.3 0 0 0 -.9 1.3.7.8 0 0 1 .7-.8.7.8 0 0 1 .7.8.7.8 0 0 1 -.7.8.7.8 0 0 1 -.7-.8.9 1.3 0 0 0 .9 1.3.9 1.3 0 0 0 .9-1.3.9 1.3 0 0 0 -.9-1.3z" fill-rule="evenodd" stroke-linecap="round" stroke-linejoin="round"/><path d="m67.2 29.1c-1.3 0-2.4.6-2.4 1.3 0 .2.1.4.2.5v3 .1c.1.6 1 1.1 2.1 1.1 1.1 0 2-.5 2.1-1.1v-.1-3c.1-.2.2-.3.2-.5 0-.7-1-1.3-2.3-1.3z"/></g><path d="m65.4 30.3c0 .6.9 1.1 2 1.1s2-.5 2-1.1-.9-1.1-2-1.1-2 .5-2 1.1z" fill="#404040"/><rect fill="#fff" fill-rule="evenodd" height="5.6" ry=".4" stroke="#999" stroke-linecap="round" stroke-linejoin="round" transform="matrix(.96005223 .27982087 -.27982087 .96005223 0 0)" width=".8" x="73.7" y="7.1"/><path d="m68.9 31c-.4.2-.9.4-1.5.4-.2 0-.4 0-.6 0v1.6h2.1z" fill="#999"/><ellipse cx="68.9" cy="27.8" fill="none" rx="1.8" ry=".8" stroke="#999" stroke-linecap="round" stroke-linejoin="round"/></g></svg>