<svg height="32" viewBox="0 0 8.5 8.5" width="32" xmlns="http://www.w3.org/2000/svg"><g transform="translate(-91.7 -26.6)"><g fill-rule="evenodd" stroke-linecap="round" stroke-linejoin="round" stroke-width=".3"><path d="m100.2 34.3c-.1-1.1-1.5-1.7-2.4-1.1-.2-1-1.5-1.6-2.4-1.1.1-.6 0-1.3-.5-1.6s-1-.3-1.2-.1c-.4-.7-.9-.9-1.7-.8-.1 0-.1 0-.2.1v.6a1 1 0 0 1 .7-.3 1 1 0 0 1 1 .9.9.9 0 0 1 .6-.2.9.9 0 0 1 .9.9.9.9 0 0 1 -.1.5 2.5 2.4 0 0 1 .5.8 1.1 1.1 0 0 1 1-.5 1.1 1.1 0 0 1 1.1 1.1 1.1 1.1 0 0 1 -.1.4 1.1 1.1 0 0 1 .4.2 1.1 1.1 0 0 1 1-.6 1.1 1.1 0 0 1 1.1 1.1 1.1 1.1 0 0 1 0 .1 1.1 1.1 0 0 1 .5.4z" fill="#f9f9f9"/><path d="m100.2 35.1a1.1 1.1 0 0 0 -.5-.4 1.1 1.1 0 0 0 0-.1 1.1 1.1 0 0 0 -1.1-1.1 1.1 1.1 0 0 0 -1 .6 1.1 1.1 0 0 0 -.4-.2 1.1 1.1 0 0 0 .1-.4 1.1 1.1 0 0 0 -1.1-1.1 1.1 1.1 0 0 0 -1 .5 2.5 2.4 0 0 0 -.5-.8.9.9 0 0 0 .1-.5.9.9 0 0 0 -.9-.9.9.9 0 0 0 -.6.2 1 1 0 0 0 -1-.9 1 1 0 0 0 -.7.3v4.7z" fill="#989898"/><path d="m98.8-26c0 .2-.8 0-2 0s-2.5.8-2.5.6 1.2-1.4 2.5-1.4c1.2 0 2 .6 2 .9z" fill="#414141" transform="matrix(.82247192 .56880572 -.56880572 .82247192 0 0)"/></g><g stroke-width=".2" transform="matrix(-1.070148 -.79898508 .79898508 -1.070148 157.447074132 131.941418188)"><path d="m81.3 31.6c0-.8 1.6-.9 1.6 0v3.2h.8l-1.6 2.1-1.5-2.1h.7z" fill="#414141"/><path d="m81.5 31.9c0-.8 1.1-.8 1.1 0v3.2h.5l-1.1 1.4-1-1.4h.5z" fill="#fff"/></g></g></svg>