<svg height="32" viewBox="0 0 8.5 8.5" width="32" xmlns="http://www.w3.org/2000/svg" xmlns:xlink="http://www.w3.org/1999/xlink"><linearGradient id="a" gradientTransform="matrix(.22293572 0 0 .31401131 24.3 -140.2)" gradientUnits="userSpaceOnUse" x1="487.1" x2="500.8" y1="523.9" y2="523.9"/><linearGradient id="b" gradientTransform="matrix(.07287192 0 0 .96064894 24.3 -140.2)" gradientUnits="userSpaceOnUse" x1="1528.5" x2="1532.2" y1="171.1" y2="171.1"/><g transform="translate(-130.7 -26.6)"><g transform="matrix(0 1 -1 0 164 -105.5)"><path d="m135 26.6a.3.3 0 0 0 -.1 0h-.1l-2.3.8a.3.3 0 0 0 -.1.4v2.5a.3.3 0 0 0 .1.2l1.8 1.2a.3.3 0 0 0 .2 0l2.2-.7a.3.3 0 0 0 .2-.3v-2.4a.3.3 0 0 0 -.1-.2l-1.6-1.4a.3.3 0 0 0 -.2-.1zm0 .5 1.5 1.3v2.1l-1.4-1.1z" fill="#414141" fill-rule="evenodd" stroke-width=".3"/><g stroke-width="1.4" transform="matrix(.69995083 0 0 .69401452 39.8 10.2)"><path d="m135.7 27.9-2.8.7-.1-3.3 2.9-1z" fill="#fff" fill-rule="evenodd" stroke-width=".4"/><path d="m136 24 2 2.2-.1 3-2.8.9-2.2-1.5.1-3.1 2.9-1.2 2.1 1.9zm0 0h-.1l-3.2 1.2-.1 3.5 2.5 1.7 3.2-1 .1-3.4z" fill="#989898" stroke-linecap="square" stroke-width="1.4"/><g stroke-width=".4"><path d="m132.3 24.2h6.3v6.1h-6.3z" fill="none"/><path d="m132.9 28.6 3-1 .1-3.3-3 1.1z" fill="url(#a)" fill-rule="evenodd" opacity="0"/><path d="m132.8 28.6 3.2-1.1 2.2 1.8-3 .9z" fill="#989898" fill-rule="evenodd"/><path d="m135.9 27.7 2.1 1.5.1-3.1-2.1-1.9z" fill="#989898" fill-rule="evenodd" opacity=".7"/></g><g stroke-width="1.4"><path d="m135.7 24.2h.3v3.6h-.3z" fill="url(#b)"/><path d="m135.5 24.2v3.8h.6v-3.8z" fill="#989898"/></g></g></g><g stroke-width=".6" transform="matrix(1.5663515 0 0 1.5714254 88.7 -18.4)"><path d="m28.4 32.4-1.5 1.5h4l1.4-1.5zm.5.5h2.1l-.4.7-2.1-.2z" fill="#404040"/><g fill="#ccc"><path d="m28.5 32.5-1.1 1.2h3.4l1.1-1.2zm.4.3h2.1l-.5.5h-2z"/><path d="m28.7 32.7-.8.8h2.7l.8-.8z"/></g></g><g stroke-width=".3"><g transform="translate(52.9 -2.9)"><path d="m81.3 33.2h1.6v1.6h1.1l-1.9 2.1-1.9-2.1h1.1z" fill="#414141"/><path d="m81.5 33.5h1.1v1.6h.5l-1.1 1.3-1.1-1.3h.5z" fill="#fff"/></g><path d="m130.1 27.3h5.9v6.4h-5.9z" fill="none"/></g></g></svg>