<svg height="32" viewBox="0 0 8.5 8.5" width="32" xmlns="http://www.w3.org/2000/svg"><g stroke-width=".3" transform="translate(-111.2 -26.6)"><path d="m112.9 28c-.1.1-.2.2-.2.3l.6.9c-.1.2-.2.3-.2.5h-1.1c-.1.2-.1.5-.1.7l1.1.4c0 .2 0 .4.1.5l-.9.7c.1.2.2.4.3.6l1.1-.3c.1.1.1.1.2.2l.8-.8c-.6-.6-.6-1.6 0-2.3.6-.6 1.6-.6 2.3 0l.8-.8c-.1-.1-.1-.1-.2-.2l.3-1.1c-.2-.1-.4-.2-.6-.3l-.7.9c-.2 0-.4-.1-.5-.1l-.4-1.1c-.2 0-.5 0-.7.1v1.1c-.2.1-.3.1-.5.2l-.9-.6c-.1.1-.2.2-.3.2z" fill="#989898" stroke="#414141"/><g transform="matrix(.75000038 0 0 .75000038 36.4 8.7)"><path d="m107.2 27.8h-2.1l-2.1 6.4h2.3l.4-1.2h1.1l.4 1.2h2.2z" fill="#414141"/><path d="m103.8 27.8h6.3v6.3h-6.3z" fill="none"/><path d="m105.4 28.4-1.7 5.3h1.1l.4-1.3h1.7l.5 1.3h1l-1.7-5.3zm.7 1.2.7 2h-1.4z" fill="#fff"/></g></g></svg>