<svg height="128" viewBox="0 0 33.9 33.9" width="128" xmlns="http://www.w3.org/2000/svg"><path d="m8 16q.7 0 1.3-.2.5-.2.9-.6.4-.4.5-.8.2-.5.2-1v-4.9q0-1.1.3-2 .3-.9 1-1.4.7-.6 1.8-.9 1.2-.3 2.8-.3h.1v2q-1.8 0-2.6.6-.7.5-.7 2.1v4.1q0 1.8-.6 2.7-.5 1-1.5 1.5 1 .5 1.5 1.5.6 1 .6 2.7v4.1q0 1.6.7 2.1.8.6 2.6.6v2h-.1q-1.7 0-2.8-.3-1.1-.3-1.8-.9-.7-.6-1-1.4-.3-.9-.3-2v-4.8q0-.5-.2-.9-.1-.5-.5-.9-.3-.3-.9-.6-.5-.2-1.3-.2z" fill="#170b28" stroke-width=".3"/><path d="m30.4 14.2v-5.3c0-.8-.1-1.5-.3-2.1s-.5-1.1-1-1.5-1.1-.8-1.9-1-1.8-.3-2.9-.3h-.2v2.1c1.2 0 2.1.2 2.7.6.5.4.8 1.1.8 2.3v4.5z" fill="#170b28" stroke-width=".3"/><g stroke="#170b28" stroke-width=".5"><path d="m2.6 4.5a1.2 1.2 0 0 1 -1.1 1.2 1.2 1.2 0 0 1 -1.2-1.2 1.2 1.2 0 0 1 1.2-1.2 1.2 1.2 0 0 1 1.1 1.2z" fill="#ad00ff" transform="matrix(3.563275 0 0 3.54277 15.5 -10.7)"/><path d="m2.6 4.5a1.2 1.2 0 0 1 -1.1 1.2 1.2 1.2 0 0 1 -1.2-1.2 1.2 1.2 0 0 1 1.2-1.2 1.2 1.2 0 0 1 1.1 1.2z" fill="#ff00f6" transform="matrix(3.563275 0 0 3.54277 15.6 12.9)"/><path d="m2.6 4.5a1.2 1.2 0 0 1 -1.1 1.2 1.2 1.2 0 0 1 -1.2-1.2 1.2 1.2 0 0 1 1.2-1.2 1.2 1.2 0 0 1 1.1 1.2z" fill="#ff000c" transform="matrix(3.563275 0 0 3.54277 0 1.1)"/><path d="m2.6 4.5a1.2 1.2 0 0 1 -1.1 1.2 1.2 1.2 0 0 1 -1.2-1.2 1.2 1.2 0 0 1 1.2-1.2 1.2 1.2 0 0 1 1.1 1.2z" fill="#b581ff" transform="matrix(3.563275 0 0 3.54277 23.5 0)"/></g></svg>