<svg height="16" viewBox="0 0 4.2 4.2" width="16" xmlns="http://www.w3.org/2000/svg"><g stroke-width=".5" transform="matrix(.50000008 0 0 .50000009 -22.2 0)"><path d="m46.4 4q.2 0 .3-.1.1-.1.2-.2.1-.1.1-.2 0-.1 0-.2v-1.2q0-.3.1-.5.1-.2.2-.4.2-.2.5-.2.3-.1.7-.1v.5q-.5 0-.7.1-.2.1-.2.5v1.1q0 .5-.1.7-.1.2-.4.4.3.1.4.4.1.2.1.7v1.1q0 .4.2.5.2.1.7.1v.5q-.4 0-.7-.1-.2 0-.3-.2-.2-.1-.3-.3-.1-.2-.1-.5v-1.3q0-.1 0-.2-.1-.1-.1-.2-.1-.1-.3-.2-.1 0-.3 0z" fill="#170b28"/><path d="m51.9 3.4v-1.3c0-.2 0-.4-.1-.5 0-.2-.1-.3-.2-.4-.2-.1-.3-.1-.5-.2-.2 0-.4-.1-.7-.1v.5c.3 0 .5 0 .7.1.1.1.2.3.2.6v1.1z" fill="#170b28"/><g stroke="#170b28"><path d="m51.5 3c-.6 0-1.1.5-1.1 1.1s.5 1.1 1.1 1.1 1.1-.5 1.1-1.1-.5-1.1-1.1-1.1z" fill="#b581ff" stroke-linecap="round" stroke-linejoin="round"/><path d="m49.5.3c-.6 0-1.1.5-1.1 1.1s.5 1.1 1.1 1.1 1.1-.5 1.1-1.1-.5-1.1-1.1-1.1z" fill="#b380ff" stroke-linecap="round" stroke-linejoin="round"/><path d="m49.5 6.1c-.6 0-1.1.5-1.1 1.1s.5 1.1 1.1 1.1 1.1-.5 1.1-1.1-.5-1.1-1.1-1.1z" fill="#ff2ad4" stroke-linecap="round" stroke-linejoin="round"/><path d="m45.7 3.2c-.6 0-1.1.5-1.1 1.1s.5 1.1 1.1 1.1 1.1-.5 1.1-1.1-.5-1.1-1.1-1.1z" fill="#ff000c"/></g></g></svg>